<?xml version="1.0" encoding="UTF-8"?><svg id="_レイヤー_2" xmlns="http://www.w3.org/2000/svg" viewBox="0 0 51.27 62.79"><defs><style>.cls-1{fill:#ff7bac;}.cls-2{fill:#fff;stroke:#fff;stroke-miterlimit:10;}</style></defs><g id="_レイヤー_1-2"><g><path class="cls-1" d="M28.8,2.11h-6.32l-2.26-.66C5.07-4.08-4.54,6.59,2.18,27.13c6.72,20.54,11.85,28.18,11.06,32.13s9.35,5.4,10.14,0c.79-5.4-3.16-14.62,.53-14.62h3.46c3.69,0-.26,9.22,.53,14.62,.79,5.4,10.93,3.95,10.14,0s4.35-11.59,11.06-32.13C55.81,6.59,46.2-4.08,31.05,1.45l-2.26,.66Z"/><path class="cls-2" d="M37.13,29.65c-1.55,3.22-4.42,5.79-8.13,6.83-5.95,1.67-12.09-1.14-14.85-6.39"/><ellipse class="cls-2" cx="15.19" cy="18.49" rx="3.25" ry="6.03"/><ellipse class="cls-2" cx="35.69" cy="18.49" rx="3.25" ry="6.03"/></g></g></svg>