<?xml version="1.0" encoding="UTF-8"?><svg id="_レイヤー_2" xmlns="http://www.w3.org/2000/svg" viewBox="0 0 451.55 73.36"><defs><style>.cls-1{fill:#ff4fac;font-family:VDL-LogoMaru-Regular-90ms-RKSJ-H, VDL-LogoMaru;}.cls-2{fill:#ff7bac;}.cls-3{font-size:21px;}.cls-4{fill:#fff;stroke:#fff;stroke-miterlimit:10;}.cls-5{font-size:42.61px;}</style></defs><g id="_レイヤー_1-2"><g><path class="cls-2" d="M429.07,9.42h-6.32l-2.26-.66c-15.14-5.53-24.76,5.14-18.04,25.68,6.72,20.54,11.85,28.18,11.06,32.13s9.35,5.4,10.14,0c.79-5.4-3.16-14.62,.53-14.62h3.46c3.69,0-.26,9.22,.53,14.62,.79,5.4,10.93,3.95,10.14,0s4.35-11.59,11.06-32.13c6.72-20.54-2.9-31.21-18.04-25.68l-2.26,.66Z"/><path class="cls-4" d="M437.41,36.97c-1.55,3.22-4.42,5.79-8.13,6.83-5.95,1.67-12.09-1.14-14.85-6.39"/><ellipse class="cls-4" cx="415.47" cy="25.81" rx="3.25" ry="6.03"/><ellipse class="cls-4" cx="435.97" cy="25.81" rx="3.25" ry="6.03"/></g><text class="cls-1" transform="translate(0 37.5)"><tspan class="cls-5"><tspan x="0" y="0">健康歯科クリニック</tspan></tspan><tspan class="cls-3"><tspan x="78.51" y="31.55">Kenko Dental Clinic</tspan></tspan></text></g></svg>